%TF.GenerationSoftware,KiCad,Pcbnew,9.0.4*%
%TF.CreationDate,2025-11-12T18:25:33-05:00*%
%TF.ProjectId,hermes,6865726d-6573-42e6-9b69-6361645f7063,rev?*%
%TF.SameCoordinates,Original*%
%TF.FileFunction,Legend,Bot*%
%TF.FilePolarity,Positive*%
%FSLAX46Y46*%
G04 Gerber Fmt 4.6, Leading zero omitted, Abs format (unit mm)*
G04 Created by KiCad (PCBNEW 9.0.4) date 2025-11-12 18:25:33*
%MOMM*%
%LPD*%
G01*
G04 APERTURE LIST*
%ADD10C,0.187500*%
%ADD11C,0.100000*%
%ADD12C,0.000000*%
G04 APERTURE END LIST*
D10*
X175948073Y-115112750D02*
X175376645Y-115112750D01*
X175662359Y-115398464D02*
X175662359Y-114827035D01*
X175090931Y-114648464D02*
X174626645Y-114648464D01*
X174626645Y-114648464D02*
X174876645Y-114934178D01*
X174876645Y-114934178D02*
X174769502Y-114934178D01*
X174769502Y-114934178D02*
X174698074Y-114969892D01*
X174698074Y-114969892D02*
X174662359Y-115005607D01*
X174662359Y-115005607D02*
X174626645Y-115077035D01*
X174626645Y-115077035D02*
X174626645Y-115255607D01*
X174626645Y-115255607D02*
X174662359Y-115327035D01*
X174662359Y-115327035D02*
X174698074Y-115362750D01*
X174698074Y-115362750D02*
X174769502Y-115398464D01*
X174769502Y-115398464D02*
X174983788Y-115398464D01*
X174983788Y-115398464D02*
X175055216Y-115362750D01*
X175055216Y-115362750D02*
X175090931Y-115327035D01*
X174412359Y-114648464D02*
X174162359Y-115398464D01*
X174162359Y-115398464D02*
X173912359Y-114648464D01*
X173733788Y-114648464D02*
X173269502Y-114648464D01*
X173269502Y-114648464D02*
X173519502Y-114934178D01*
X173519502Y-114934178D02*
X173412359Y-114934178D01*
X173412359Y-114934178D02*
X173340931Y-114969892D01*
X173340931Y-114969892D02*
X173305216Y-115005607D01*
X173305216Y-115005607D02*
X173269502Y-115077035D01*
X173269502Y-115077035D02*
X173269502Y-115255607D01*
X173269502Y-115255607D02*
X173305216Y-115327035D01*
X173305216Y-115327035D02*
X173340931Y-115362750D01*
X173340931Y-115362750D02*
X173412359Y-115398464D01*
X173412359Y-115398464D02*
X173626645Y-115398464D01*
X173626645Y-115398464D02*
X173698073Y-115362750D01*
X173698073Y-115362750D02*
X173733788Y-115327035D01*
X175948073Y-114398464D02*
X175948073Y-113648464D01*
X175590930Y-114398464D02*
X175590930Y-113648464D01*
X175590930Y-113648464D02*
X175162359Y-114398464D01*
X175162359Y-114398464D02*
X175162359Y-113648464D01*
X174912359Y-113648464D02*
X174483788Y-113648464D01*
X174698073Y-114398464D02*
X174698073Y-113648464D01*
X175983787Y-113362750D02*
X175876645Y-113398464D01*
X175876645Y-113398464D02*
X175698073Y-113398464D01*
X175698073Y-113398464D02*
X175626645Y-113362750D01*
X175626645Y-113362750D02*
X175590930Y-113327035D01*
X175590930Y-113327035D02*
X175555216Y-113255607D01*
X175555216Y-113255607D02*
X175555216Y-113184178D01*
X175555216Y-113184178D02*
X175590930Y-113112750D01*
X175590930Y-113112750D02*
X175626645Y-113077035D01*
X175626645Y-113077035D02*
X175698073Y-113041321D01*
X175698073Y-113041321D02*
X175840930Y-113005607D01*
X175840930Y-113005607D02*
X175912359Y-112969892D01*
X175912359Y-112969892D02*
X175948073Y-112934178D01*
X175948073Y-112934178D02*
X175983787Y-112862750D01*
X175983787Y-112862750D02*
X175983787Y-112791321D01*
X175983787Y-112791321D02*
X175948073Y-112719892D01*
X175948073Y-112719892D02*
X175912359Y-112684178D01*
X175912359Y-112684178D02*
X175840930Y-112648464D01*
X175840930Y-112648464D02*
X175662359Y-112648464D01*
X175662359Y-112648464D02*
X175555216Y-112684178D01*
X175233787Y-113398464D02*
X175233787Y-112648464D01*
X175233787Y-112648464D02*
X175055216Y-112648464D01*
X175055216Y-112648464D02*
X174948073Y-112684178D01*
X174948073Y-112684178D02*
X174876644Y-112755607D01*
X174876644Y-112755607D02*
X174840930Y-112827035D01*
X174840930Y-112827035D02*
X174805216Y-112969892D01*
X174805216Y-112969892D02*
X174805216Y-113077035D01*
X174805216Y-113077035D02*
X174840930Y-113219892D01*
X174840930Y-113219892D02*
X174876644Y-113291321D01*
X174876644Y-113291321D02*
X174948073Y-113362750D01*
X174948073Y-113362750D02*
X175055216Y-113398464D01*
X175055216Y-113398464D02*
X175233787Y-113398464D01*
X174519501Y-113184178D02*
X174162359Y-113184178D01*
X174590930Y-113398464D02*
X174340930Y-112648464D01*
X174340930Y-112648464D02*
X174090930Y-113398464D01*
X175983787Y-112362750D02*
X175876645Y-112398464D01*
X175876645Y-112398464D02*
X175698073Y-112398464D01*
X175698073Y-112398464D02*
X175626645Y-112362750D01*
X175626645Y-112362750D02*
X175590930Y-112327035D01*
X175590930Y-112327035D02*
X175555216Y-112255607D01*
X175555216Y-112255607D02*
X175555216Y-112184178D01*
X175555216Y-112184178D02*
X175590930Y-112112750D01*
X175590930Y-112112750D02*
X175626645Y-112077035D01*
X175626645Y-112077035D02*
X175698073Y-112041321D01*
X175698073Y-112041321D02*
X175840930Y-112005607D01*
X175840930Y-112005607D02*
X175912359Y-111969892D01*
X175912359Y-111969892D02*
X175948073Y-111934178D01*
X175948073Y-111934178D02*
X175983787Y-111862750D01*
X175983787Y-111862750D02*
X175983787Y-111791321D01*
X175983787Y-111791321D02*
X175948073Y-111719892D01*
X175948073Y-111719892D02*
X175912359Y-111684178D01*
X175912359Y-111684178D02*
X175840930Y-111648464D01*
X175840930Y-111648464D02*
X175662359Y-111648464D01*
X175662359Y-111648464D02*
X175555216Y-111684178D01*
X174805216Y-112327035D02*
X174840930Y-112362750D01*
X174840930Y-112362750D02*
X174948073Y-112398464D01*
X174948073Y-112398464D02*
X175019501Y-112398464D01*
X175019501Y-112398464D02*
X175126644Y-112362750D01*
X175126644Y-112362750D02*
X175198073Y-112291321D01*
X175198073Y-112291321D02*
X175233787Y-112219892D01*
X175233787Y-112219892D02*
X175269501Y-112077035D01*
X175269501Y-112077035D02*
X175269501Y-111969892D01*
X175269501Y-111969892D02*
X175233787Y-111827035D01*
X175233787Y-111827035D02*
X175198073Y-111755607D01*
X175198073Y-111755607D02*
X175126644Y-111684178D01*
X175126644Y-111684178D02*
X175019501Y-111648464D01*
X175019501Y-111648464D02*
X174948073Y-111648464D01*
X174948073Y-111648464D02*
X174840930Y-111684178D01*
X174840930Y-111684178D02*
X174805216Y-111719892D01*
X174126644Y-112398464D02*
X174483787Y-112398464D01*
X174483787Y-112398464D02*
X174483787Y-111648464D01*
X176019502Y-110648464D02*
X175519502Y-111398464D01*
X175519502Y-110648464D02*
X176019502Y-111398464D01*
X175269501Y-111362750D02*
X175162359Y-111398464D01*
X175162359Y-111398464D02*
X174983787Y-111398464D01*
X174983787Y-111398464D02*
X174912359Y-111362750D01*
X174912359Y-111362750D02*
X174876644Y-111327035D01*
X174876644Y-111327035D02*
X174840930Y-111255607D01*
X174840930Y-111255607D02*
X174840930Y-111184178D01*
X174840930Y-111184178D02*
X174876644Y-111112750D01*
X174876644Y-111112750D02*
X174912359Y-111077035D01*
X174912359Y-111077035D02*
X174983787Y-111041321D01*
X174983787Y-111041321D02*
X175126644Y-111005607D01*
X175126644Y-111005607D02*
X175198073Y-110969892D01*
X175198073Y-110969892D02*
X175233787Y-110934178D01*
X175233787Y-110934178D02*
X175269501Y-110862750D01*
X175269501Y-110862750D02*
X175269501Y-110791321D01*
X175269501Y-110791321D02*
X175233787Y-110719892D01*
X175233787Y-110719892D02*
X175198073Y-110684178D01*
X175198073Y-110684178D02*
X175126644Y-110648464D01*
X175126644Y-110648464D02*
X174948073Y-110648464D01*
X174948073Y-110648464D02*
X174840930Y-110684178D01*
X174519501Y-111398464D02*
X174519501Y-110648464D01*
X174519501Y-111005607D02*
X174090930Y-111005607D01*
X174090930Y-111398464D02*
X174090930Y-110648464D01*
X173733787Y-110648464D02*
X173733787Y-111255607D01*
X173733787Y-111255607D02*
X173698073Y-111327035D01*
X173698073Y-111327035D02*
X173662359Y-111362750D01*
X173662359Y-111362750D02*
X173590930Y-111398464D01*
X173590930Y-111398464D02*
X173448073Y-111398464D01*
X173448073Y-111398464D02*
X173376644Y-111362750D01*
X173376644Y-111362750D02*
X173340930Y-111327035D01*
X173340930Y-111327035D02*
X173305216Y-111255607D01*
X173305216Y-111255607D02*
X173305216Y-110648464D01*
X173055216Y-110648464D02*
X172626645Y-110648464D01*
X172840930Y-111398464D02*
X172840930Y-110648464D01*
X175555216Y-109684178D02*
X175626645Y-109648464D01*
X175626645Y-109648464D02*
X175733787Y-109648464D01*
X175733787Y-109648464D02*
X175840930Y-109684178D01*
X175840930Y-109684178D02*
X175912359Y-109755607D01*
X175912359Y-109755607D02*
X175948073Y-109827035D01*
X175948073Y-109827035D02*
X175983787Y-109969892D01*
X175983787Y-109969892D02*
X175983787Y-110077035D01*
X175983787Y-110077035D02*
X175948073Y-110219892D01*
X175948073Y-110219892D02*
X175912359Y-110291321D01*
X175912359Y-110291321D02*
X175840930Y-110362750D01*
X175840930Y-110362750D02*
X175733787Y-110398464D01*
X175733787Y-110398464D02*
X175662359Y-110398464D01*
X175662359Y-110398464D02*
X175555216Y-110362750D01*
X175555216Y-110362750D02*
X175519502Y-110327035D01*
X175519502Y-110327035D02*
X175519502Y-110077035D01*
X175519502Y-110077035D02*
X175662359Y-110077035D01*
X175198073Y-110398464D02*
X175198073Y-109648464D01*
X175198073Y-109648464D02*
X174769502Y-110398464D01*
X174769502Y-110398464D02*
X174769502Y-109648464D01*
X174412359Y-110398464D02*
X174412359Y-109648464D01*
X174412359Y-109648464D02*
X174233788Y-109648464D01*
X174233788Y-109648464D02*
X174126645Y-109684178D01*
X174126645Y-109684178D02*
X174055216Y-109755607D01*
X174055216Y-109755607D02*
X174019502Y-109827035D01*
X174019502Y-109827035D02*
X173983788Y-109969892D01*
X173983788Y-109969892D02*
X173983788Y-110077035D01*
X173983788Y-110077035D02*
X174019502Y-110219892D01*
X174019502Y-110219892D02*
X174055216Y-110291321D01*
X174055216Y-110291321D02*
X174126645Y-110362750D01*
X174126645Y-110362750D02*
X174233788Y-110398464D01*
X174233788Y-110398464D02*
X174412359Y-110398464D01*
D11*
X172934837Y-116512475D02*
X172601504Y-117512475D01*
X172601504Y-117512475D02*
X172268171Y-116512475D01*
X171458647Y-117512475D02*
X171934837Y-117512475D01*
X171934837Y-117512475D02*
X171934837Y-116512475D01*
X170649123Y-116512475D02*
X171125313Y-116512475D01*
X171125313Y-116512475D02*
X171172932Y-116988665D01*
X171172932Y-116988665D02*
X171125313Y-116941046D01*
X171125313Y-116941046D02*
X171030075Y-116893427D01*
X171030075Y-116893427D02*
X170791980Y-116893427D01*
X170791980Y-116893427D02*
X170696742Y-116941046D01*
X170696742Y-116941046D02*
X170649123Y-116988665D01*
X170649123Y-116988665D02*
X170601504Y-117083903D01*
X170601504Y-117083903D02*
X170601504Y-117321998D01*
X170601504Y-117321998D02*
X170649123Y-117417236D01*
X170649123Y-117417236D02*
X170696742Y-117464856D01*
X170696742Y-117464856D02*
X170791980Y-117512475D01*
X170791980Y-117512475D02*
X171030075Y-117512475D01*
X171030075Y-117512475D02*
X171125313Y-117464856D01*
X171125313Y-117464856D02*
X171172932Y-117417236D01*
X170268170Y-116512475D02*
X169649123Y-116512475D01*
X169649123Y-116512475D02*
X169982456Y-116893427D01*
X169982456Y-116893427D02*
X169839599Y-116893427D01*
X169839599Y-116893427D02*
X169744361Y-116941046D01*
X169744361Y-116941046D02*
X169696742Y-116988665D01*
X169696742Y-116988665D02*
X169649123Y-117083903D01*
X169649123Y-117083903D02*
X169649123Y-117321998D01*
X169649123Y-117321998D02*
X169696742Y-117417236D01*
X169696742Y-117417236D02*
X169744361Y-117464856D01*
X169744361Y-117464856D02*
X169839599Y-117512475D01*
X169839599Y-117512475D02*
X170125313Y-117512475D01*
X170125313Y-117512475D02*
X170220551Y-117464856D01*
X170220551Y-117464856D02*
X170268170Y-117417236D01*
X168744361Y-117512475D02*
X169220551Y-117512475D01*
X169220551Y-117512475D02*
X169220551Y-116512475D01*
X167887218Y-117512475D02*
X168458646Y-117512475D01*
X168172932Y-117512475D02*
X168172932Y-116512475D01*
X168172932Y-116512475D02*
X168268170Y-116655332D01*
X168268170Y-116655332D02*
X168363408Y-116750570D01*
X168363408Y-116750570D02*
X168458646Y-116798189D01*
X167553884Y-116512475D02*
X166887218Y-117512475D01*
X166887218Y-116512475D02*
X167553884Y-117512475D01*
X165887217Y-116512475D02*
X165315789Y-116512475D01*
X165601503Y-117512475D02*
X165601503Y-116512475D01*
X164791979Y-116512475D02*
X164601503Y-116512475D01*
X164601503Y-116512475D02*
X164506265Y-116560094D01*
X164506265Y-116560094D02*
X164411027Y-116655332D01*
X164411027Y-116655332D02*
X164363408Y-116845808D01*
X164363408Y-116845808D02*
X164363408Y-117179141D01*
X164363408Y-117179141D02*
X164411027Y-117369617D01*
X164411027Y-117369617D02*
X164506265Y-117464856D01*
X164506265Y-117464856D02*
X164601503Y-117512475D01*
X164601503Y-117512475D02*
X164791979Y-117512475D01*
X164791979Y-117512475D02*
X164887217Y-117464856D01*
X164887217Y-117464856D02*
X164982455Y-117369617D01*
X164982455Y-117369617D02*
X165030074Y-117179141D01*
X165030074Y-117179141D02*
X165030074Y-116845808D01*
X165030074Y-116845808D02*
X164982455Y-116655332D01*
X164982455Y-116655332D02*
X164887217Y-116560094D01*
X164887217Y-116560094D02*
X164791979Y-116512475D01*
X163601503Y-116988665D02*
X163934836Y-116988665D01*
X163934836Y-117512475D02*
X163934836Y-116512475D01*
X163934836Y-116512475D02*
X163458646Y-116512475D01*
X169315790Y-118598609D02*
X169172933Y-118646228D01*
X169172933Y-118646228D02*
X169125314Y-118693847D01*
X169125314Y-118693847D02*
X169077695Y-118789085D01*
X169077695Y-118789085D02*
X169077695Y-118931942D01*
X169077695Y-118931942D02*
X169125314Y-119027180D01*
X169125314Y-119027180D02*
X169172933Y-119074800D01*
X169172933Y-119074800D02*
X169268171Y-119122419D01*
X169268171Y-119122419D02*
X169649123Y-119122419D01*
X169649123Y-119122419D02*
X169649123Y-118122419D01*
X169649123Y-118122419D02*
X169315790Y-118122419D01*
X169315790Y-118122419D02*
X169220552Y-118170038D01*
X169220552Y-118170038D02*
X169172933Y-118217657D01*
X169172933Y-118217657D02*
X169125314Y-118312895D01*
X169125314Y-118312895D02*
X169125314Y-118408133D01*
X169125314Y-118408133D02*
X169172933Y-118503371D01*
X169172933Y-118503371D02*
X169220552Y-118550990D01*
X169220552Y-118550990D02*
X169315790Y-118598609D01*
X169315790Y-118598609D02*
X169649123Y-118598609D01*
X168649123Y-119122419D02*
X168649123Y-118455752D01*
X168649123Y-118646228D02*
X168601504Y-118550990D01*
X168601504Y-118550990D02*
X168553885Y-118503371D01*
X168553885Y-118503371D02*
X168458647Y-118455752D01*
X168458647Y-118455752D02*
X168363409Y-118455752D01*
X167649123Y-119074800D02*
X167744361Y-119122419D01*
X167744361Y-119122419D02*
X167934837Y-119122419D01*
X167934837Y-119122419D02*
X168030075Y-119074800D01*
X168030075Y-119074800D02*
X168077694Y-118979561D01*
X168077694Y-118979561D02*
X168077694Y-118598609D01*
X168077694Y-118598609D02*
X168030075Y-118503371D01*
X168030075Y-118503371D02*
X167934837Y-118455752D01*
X167934837Y-118455752D02*
X167744361Y-118455752D01*
X167744361Y-118455752D02*
X167649123Y-118503371D01*
X167649123Y-118503371D02*
X167601504Y-118598609D01*
X167601504Y-118598609D02*
X167601504Y-118693847D01*
X167601504Y-118693847D02*
X168077694Y-118789085D01*
X166744361Y-119122419D02*
X166744361Y-118598609D01*
X166744361Y-118598609D02*
X166791980Y-118503371D01*
X166791980Y-118503371D02*
X166887218Y-118455752D01*
X166887218Y-118455752D02*
X167077694Y-118455752D01*
X167077694Y-118455752D02*
X167172932Y-118503371D01*
X166744361Y-119074800D02*
X166839599Y-119122419D01*
X166839599Y-119122419D02*
X167077694Y-119122419D01*
X167077694Y-119122419D02*
X167172932Y-119074800D01*
X167172932Y-119074800D02*
X167220551Y-118979561D01*
X167220551Y-118979561D02*
X167220551Y-118884323D01*
X167220551Y-118884323D02*
X167172932Y-118789085D01*
X167172932Y-118789085D02*
X167077694Y-118741466D01*
X167077694Y-118741466D02*
X166839599Y-118741466D01*
X166839599Y-118741466D02*
X166744361Y-118693847D01*
X166268170Y-119122419D02*
X166268170Y-118122419D01*
X166172932Y-118741466D02*
X165887218Y-119122419D01*
X165887218Y-118455752D02*
X166268170Y-118836704D01*
X165315789Y-119122419D02*
X165411027Y-119074800D01*
X165411027Y-119074800D02*
X165458646Y-119027180D01*
X165458646Y-119027180D02*
X165506265Y-118931942D01*
X165506265Y-118931942D02*
X165506265Y-118646228D01*
X165506265Y-118646228D02*
X165458646Y-118550990D01*
X165458646Y-118550990D02*
X165411027Y-118503371D01*
X165411027Y-118503371D02*
X165315789Y-118455752D01*
X165315789Y-118455752D02*
X165172932Y-118455752D01*
X165172932Y-118455752D02*
X165077694Y-118503371D01*
X165077694Y-118503371D02*
X165030075Y-118550990D01*
X165030075Y-118550990D02*
X164982456Y-118646228D01*
X164982456Y-118646228D02*
X164982456Y-118931942D01*
X164982456Y-118931942D02*
X165030075Y-119027180D01*
X165030075Y-119027180D02*
X165077694Y-119074800D01*
X165077694Y-119074800D02*
X165172932Y-119122419D01*
X165172932Y-119122419D02*
X165315789Y-119122419D01*
X164125313Y-118455752D02*
X164125313Y-119122419D01*
X164553884Y-118455752D02*
X164553884Y-118979561D01*
X164553884Y-118979561D02*
X164506265Y-119074800D01*
X164506265Y-119074800D02*
X164411027Y-119122419D01*
X164411027Y-119122419D02*
X164268170Y-119122419D01*
X164268170Y-119122419D02*
X164172932Y-119074800D01*
X164172932Y-119074800D02*
X164125313Y-119027180D01*
X163791979Y-118455752D02*
X163411027Y-118455752D01*
X163649122Y-118122419D02*
X163649122Y-118979561D01*
X163649122Y-118979561D02*
X163601503Y-119074800D01*
X163601503Y-119074800D02*
X163506265Y-119122419D01*
X163506265Y-119122419D02*
X163411027Y-119122419D01*
D12*
%TO.C,G\u002A\u002A\u002A*%
G36*
X169209954Y-112089245D02*
G01*
X169204241Y-112232538D01*
X169191704Y-112360045D01*
X169172346Y-112459952D01*
X169117347Y-112627273D01*
X169007374Y-112863919D01*
X168866961Y-113079987D01*
X168699122Y-113271071D01*
X168506871Y-113432766D01*
X168342865Y-113535042D01*
X168147856Y-113628721D01*
X167945279Y-113701447D01*
X167750000Y-113747047D01*
X167683516Y-113752638D01*
X167586387Y-113753734D01*
X167471999Y-113750642D01*
X167351760Y-113744000D01*
X167237076Y-113734442D01*
X167139354Y-113722606D01*
X167070000Y-113709127D01*
X167047531Y-113702806D01*
X166801848Y-113611726D01*
X166575242Y-113487081D01*
X166370543Y-113331717D01*
X166190583Y-113148481D01*
X166038193Y-112940218D01*
X165916206Y-112709775D01*
X165827451Y-112460000D01*
X165813881Y-112397198D01*
X165799105Y-112277437D01*
X165791161Y-112138018D01*
X165791029Y-112120580D01*
X165930194Y-112120580D01*
X165945437Y-112295764D01*
X165976704Y-112450000D01*
X166025030Y-112595234D01*
X166132337Y-112821133D01*
X166270812Y-113024561D01*
X166437807Y-113202859D01*
X166630674Y-113353370D01*
X166846763Y-113473437D01*
X167083428Y-113560404D01*
X167113701Y-113568235D01*
X167234010Y-113590223D01*
X167372726Y-113605104D01*
X167515590Y-113612064D01*
X167648342Y-113610286D01*
X167756722Y-113598953D01*
X167826466Y-113584935D01*
X168067045Y-113511633D01*
X168288913Y-113404478D01*
X168489399Y-113265899D01*
X168665831Y-113098330D01*
X168815536Y-112904199D01*
X168935841Y-112685940D01*
X169024075Y-112445983D01*
X169052160Y-112313262D01*
X169069010Y-112140708D01*
X169069807Y-111959419D01*
X169054564Y-111784235D01*
X169023297Y-111630000D01*
X168975039Y-111484657D01*
X168867583Y-111257887D01*
X168728824Y-111054236D01*
X168561023Y-110875959D01*
X168366441Y-110725312D01*
X168147341Y-110604549D01*
X167905984Y-110515925D01*
X167773263Y-110487840D01*
X167600709Y-110470990D01*
X167419420Y-110470193D01*
X167244236Y-110485436D01*
X167090000Y-110516703D01*
X166944658Y-110564961D01*
X166717888Y-110672417D01*
X166514237Y-110811176D01*
X166335960Y-110978977D01*
X166185313Y-111173559D01*
X166064550Y-111392659D01*
X165975926Y-111634016D01*
X165947841Y-111766737D01*
X165930991Y-111939291D01*
X165930194Y-112120580D01*
X165791029Y-112120580D01*
X165790047Y-111990754D01*
X165795760Y-111847461D01*
X165808297Y-111719954D01*
X165827655Y-111620047D01*
X165832038Y-111604486D01*
X165924062Y-111353051D01*
X166049022Y-111122337D01*
X166204406Y-110914855D01*
X166387706Y-110733115D01*
X166596412Y-110579627D01*
X166828013Y-110456902D01*
X167080000Y-110367450D01*
X167142802Y-110353880D01*
X167262563Y-110339104D01*
X167401982Y-110331160D01*
X167549246Y-110330046D01*
X167692539Y-110335759D01*
X167820046Y-110348296D01*
X167919953Y-110367654D01*
X167935514Y-110372037D01*
X168186949Y-110464061D01*
X168417663Y-110589021D01*
X168625145Y-110744405D01*
X168806885Y-110927705D01*
X168960373Y-111136411D01*
X169083098Y-111368012D01*
X169172550Y-111620000D01*
X169186120Y-111682801D01*
X169200896Y-111802562D01*
X169208840Y-111941981D01*
X169208972Y-111959419D01*
X169209954Y-112089245D01*
G37*
G36*
X172500000Y-115000000D02*
G01*
X167500000Y-115000000D01*
X162500000Y-115000000D01*
X162500000Y-110000000D01*
X162500000Y-106500000D01*
X162600000Y-106500000D01*
X162600000Y-106850000D01*
X162600000Y-107200000D01*
X163525000Y-107200397D01*
X164450000Y-107200795D01*
X164919793Y-107449381D01*
X165039124Y-107512459D01*
X165153985Y-107572706D01*
X165241385Y-107617456D01*
X165305628Y-107648484D01*
X165351015Y-107667566D01*
X165381851Y-107676477D01*
X165402436Y-107676992D01*
X165417074Y-107670888D01*
X165430066Y-107659938D01*
X165430322Y-107659697D01*
X165520644Y-107600515D01*
X165629955Y-107568002D01*
X165745780Y-107564177D01*
X165855643Y-107591060D01*
X165863220Y-107594309D01*
X165968267Y-107659905D01*
X166046451Y-107748210D01*
X166096432Y-107852184D01*
X166116870Y-107964785D01*
X166115590Y-107978773D01*
X166106424Y-108078972D01*
X166063755Y-108187703D01*
X165987522Y-108283939D01*
X165940128Y-108322777D01*
X165833697Y-108377549D01*
X165722325Y-108398625D01*
X165611894Y-108388652D01*
X165508287Y-108350276D01*
X165417387Y-108286141D01*
X165345076Y-108198893D01*
X165297237Y-108091178D01*
X165281753Y-107980000D01*
X165470000Y-107980000D01*
X165470001Y-107981386D01*
X165474478Y-108048133D01*
X165492633Y-108094948D01*
X165531868Y-108141098D01*
X165552960Y-108159609D01*
X165629589Y-108200456D01*
X165713681Y-108215764D01*
X165790000Y-108201942D01*
X165862349Y-108153135D01*
X165912568Y-108076030D01*
X165930000Y-107978773D01*
X165929997Y-107975867D01*
X165925260Y-107910278D01*
X165906141Y-107863468D01*
X165864616Y-107815384D01*
X165860437Y-107811232D01*
X165813661Y-107771990D01*
X165766758Y-107754191D01*
X165700000Y-107750000D01*
X165693681Y-107750017D01*
X165629162Y-107754982D01*
X165582972Y-107774159D01*
X165535385Y-107815384D01*
X165531233Y-107819563D01*
X165491991Y-107866339D01*
X165474192Y-107913242D01*
X165470000Y-107980000D01*
X165281753Y-107980000D01*
X165279753Y-107965642D01*
X165279505Y-107870000D01*
X164835281Y-107635000D01*
X164391057Y-107400000D01*
X163495529Y-107400000D01*
X162600000Y-107400000D01*
X162600000Y-111150000D01*
X162600000Y-114900000D01*
X167500000Y-114900000D01*
X172400000Y-114900000D01*
X172400000Y-110000000D01*
X172400000Y-105100000D01*
X167500000Y-105100000D01*
X162600000Y-105100000D01*
X162600000Y-105700000D01*
X162600000Y-106300000D01*
X163863026Y-106300000D01*
X165126051Y-106300000D01*
X165600283Y-106550149D01*
X166074515Y-106800298D01*
X166189632Y-106747596D01*
X166208176Y-106739255D01*
X166279437Y-106712560D01*
X166341490Y-106702788D01*
X166414536Y-106706225D01*
X166460652Y-106713407D01*
X166570918Y-106753759D01*
X166658879Y-106819679D01*
X166723391Y-106904883D01*
X166763307Y-107003091D01*
X166776404Y-107100063D01*
X166777479Y-107108021D01*
X166764762Y-107213392D01*
X166724010Y-107312923D01*
X166654075Y-107400332D01*
X166553812Y-107469337D01*
X166521359Y-107484380D01*
X166409026Y-107515827D01*
X166299474Y-107510399D01*
X166183637Y-107468066D01*
X166113285Y-107424931D01*
X166033400Y-107341318D01*
X165985327Y-107234445D01*
X165970323Y-107119936D01*
X166140000Y-107119936D01*
X166140270Y-107127840D01*
X166161363Y-107197452D01*
X166208780Y-107263032D01*
X166272144Y-107309676D01*
X166326511Y-107330325D01*
X166407394Y-107335659D01*
X166484887Y-107304904D01*
X166488319Y-107302706D01*
X166543283Y-107248110D01*
X166584051Y-107174262D01*
X166600000Y-107100063D01*
X166597568Y-107074365D01*
X166567586Y-107003115D01*
X166511328Y-106940844D01*
X166438814Y-106896742D01*
X166360064Y-106880000D01*
X166334366Y-106882432D01*
X166263116Y-106912414D01*
X166200845Y-106968672D01*
X166156743Y-107041186D01*
X166140000Y-107119936D01*
X165970323Y-107119936D01*
X165968050Y-107102589D01*
X165966099Y-106975179D01*
X165518805Y-106737589D01*
X165071510Y-106500000D01*
X163835755Y-106500000D01*
X162600000Y-106500000D01*
X162500000Y-106500000D01*
X162500000Y-105000000D01*
X167500000Y-105000000D01*
X172500000Y-105000000D01*
X172500000Y-110000000D01*
X172500000Y-115000000D01*
G37*
G36*
X165765604Y-110779072D02*
G01*
X165743240Y-110864651D01*
X165700435Y-110970000D01*
X165699292Y-110972536D01*
X165627815Y-111101547D01*
X165541744Y-111199083D01*
X165435714Y-111268686D01*
X165304356Y-111313896D01*
X165142305Y-111338254D01*
X164999294Y-111345967D01*
X164826706Y-111345024D01*
X164658929Y-111333988D01*
X164504625Y-111313744D01*
X164372457Y-111285177D01*
X164271086Y-111249174D01*
X164222086Y-111216820D01*
X164177449Y-111150475D01*
X164167505Y-111126161D01*
X164145470Y-111096592D01*
X164107551Y-111077295D01*
X164041881Y-111060381D01*
X164030731Y-111057884D01*
X163890191Y-111016920D01*
X163778741Y-110965718D01*
X163699092Y-110906263D01*
X163653954Y-110840539D01*
X163646040Y-110770532D01*
X163648766Y-110750632D01*
X163645393Y-110719345D01*
X163621791Y-110697156D01*
X163569191Y-110672927D01*
X163493380Y-110638119D01*
X163386456Y-110573471D01*
X163307649Y-110504276D01*
X163258961Y-110433861D01*
X163242395Y-110365551D01*
X163259954Y-110302674D01*
X163313641Y-110248555D01*
X163377282Y-110205818D01*
X163278121Y-110108148D01*
X163234505Y-110061935D01*
X163162923Y-109966651D01*
X163116517Y-109874841D01*
X163100000Y-109794800D01*
X163100070Y-109791858D01*
X163114609Y-109739752D01*
X163146819Y-109687800D01*
X163193638Y-109633370D01*
X163156584Y-109535850D01*
X163129668Y-109442332D01*
X163107657Y-109313517D01*
X163094442Y-109168917D01*
X163091115Y-109020882D01*
X163098767Y-108881762D01*
X163109281Y-108799009D01*
X163240000Y-108799009D01*
X163240000Y-109036775D01*
X163240116Y-109068996D01*
X163245576Y-109235227D01*
X163259812Y-109368818D01*
X163283663Y-109475395D01*
X163317966Y-109560586D01*
X163321530Y-109567466D01*
X163341982Y-109614417D01*
X163342628Y-109649073D01*
X163324441Y-109691058D01*
X163324397Y-109691142D01*
X163294057Y-109739046D01*
X163264366Y-109771523D01*
X163249199Y-109789785D01*
X163248899Y-109836528D01*
X163266897Y-109868018D01*
X163308854Y-109921226D01*
X163366469Y-109985507D01*
X163432117Y-110052763D01*
X163498175Y-110114896D01*
X163557020Y-110163808D01*
X163582858Y-110183544D01*
X163609110Y-110210190D01*
X163610446Y-110236288D01*
X163591506Y-110277087D01*
X163578300Y-110300162D01*
X163544778Y-110331972D01*
X163494487Y-110340306D01*
X163452305Y-110342354D01*
X163404672Y-110355555D01*
X163394959Y-110381102D01*
X163423038Y-110419134D01*
X163447398Y-110440153D01*
X163531351Y-110494168D01*
X163646518Y-110547037D01*
X163797234Y-110600867D01*
X163964468Y-110655004D01*
X163871823Y-110718746D01*
X163833834Y-110747412D01*
X163799459Y-110780844D01*
X163790857Y-110801386D01*
X163814875Y-110824292D01*
X163879762Y-110857996D01*
X163978637Y-110893269D01*
X164108138Y-110928761D01*
X164128336Y-110933711D01*
X164206226Y-110953653D01*
X164254361Y-110969566D01*
X164280346Y-110985813D01*
X164291784Y-111006760D01*
X164296279Y-111036772D01*
X164297413Y-111045726D01*
X164315229Y-111091814D01*
X164355989Y-111126944D01*
X164425377Y-111154568D01*
X164529077Y-111178136D01*
X164558390Y-111182708D01*
X164649509Y-111191231D01*
X164761575Y-111196313D01*
X164884447Y-111198030D01*
X165007986Y-111196454D01*
X165122055Y-111191658D01*
X165216514Y-111183716D01*
X165281225Y-111172700D01*
X165332510Y-111156566D01*
X165425489Y-111108164D01*
X165498086Y-111035678D01*
X165559437Y-110931179D01*
X165585455Y-110870883D01*
X165615836Y-110752558D01*
X165613113Y-110636216D01*
X165577851Y-110508847D01*
X165526536Y-110409327D01*
X165438621Y-110294020D01*
X165321945Y-110174450D01*
X165181505Y-110054272D01*
X165022299Y-109937143D01*
X164849324Y-109826719D01*
X164667576Y-109726656D01*
X164482054Y-109640611D01*
X164297754Y-109572240D01*
X164146253Y-109516198D01*
X163971046Y-109429439D01*
X163800038Y-109318359D01*
X163626824Y-109178707D01*
X163445000Y-109006231D01*
X163240000Y-108799009D01*
X163109281Y-108799009D01*
X163109363Y-108798367D01*
X163132862Y-108690218D01*
X163165631Y-108612718D01*
X163209568Y-108560358D01*
X163223115Y-108550398D01*
X163246672Y-108548663D01*
X163273230Y-108578541D01*
X163349288Y-108681206D01*
X163529440Y-108889083D01*
X163728616Y-109077912D01*
X163936295Y-109237242D01*
X163956279Y-109250701D01*
X164034007Y-109300794D01*
X164104222Y-109340516D01*
X164178372Y-109375366D01*
X164267902Y-109410842D01*
X164384260Y-109452445D01*
X164636516Y-109551926D01*
X164924095Y-109699509D01*
X165187858Y-109876365D01*
X165432077Y-110085073D01*
X165499027Y-110151440D01*
X165599060Y-110265458D01*
X165671874Y-110374728D01*
X165722892Y-110488069D01*
X165757538Y-110614303D01*
X165769653Y-110700007D01*
X165766962Y-110752558D01*
X165765604Y-110779072D01*
G37*
G36*
X171908498Y-109116551D02*
G01*
X171897681Y-109270917D01*
X171877153Y-109414973D01*
X171848088Y-109534216D01*
X171830934Y-109590234D01*
X171824981Y-109629091D01*
X171833521Y-109657898D01*
X171857424Y-109691267D01*
X171885654Y-109738123D01*
X171898568Y-109810384D01*
X171878296Y-109891416D01*
X171823931Y-109984171D01*
X171734566Y-110091602D01*
X171623675Y-110211377D01*
X171681120Y-110244346D01*
X171735144Y-110290819D01*
X171757817Y-110350181D01*
X171747740Y-110416440D01*
X171707233Y-110485698D01*
X171638617Y-110554054D01*
X171544214Y-110617607D01*
X171426344Y-110672459D01*
X171394457Y-110685067D01*
X171358234Y-110705149D01*
X171346708Y-110729546D01*
X171351215Y-110769440D01*
X171352192Y-110775353D01*
X171342991Y-110845410D01*
X171296535Y-110910754D01*
X171215272Y-110969571D01*
X171101651Y-111020051D01*
X170958120Y-111060381D01*
X170916798Y-111070137D01*
X170868313Y-111087433D01*
X170840854Y-111111584D01*
X170822552Y-111150475D01*
X170788993Y-111203423D01*
X170720049Y-111252442D01*
X170616564Y-111291035D01*
X170477045Y-111319741D01*
X170300000Y-111339098D01*
X170274075Y-111340896D01*
X170163925Y-111345839D01*
X170052367Y-111347404D01*
X169960000Y-111345220D01*
X169858212Y-111337566D01*
X169701195Y-111313526D01*
X169574603Y-111273371D01*
X169473202Y-111213594D01*
X169391759Y-111130690D01*
X169325042Y-111021152D01*
X169267818Y-110881476D01*
X169266878Y-110878770D01*
X169241610Y-110800495D01*
X169229752Y-110742699D01*
X169229514Y-110689345D01*
X169232626Y-110668269D01*
X169382314Y-110668269D01*
X169393499Y-110798059D01*
X169441296Y-110932714D01*
X169467016Y-110981872D01*
X169537519Y-111075709D01*
X169625940Y-111139144D01*
X169740000Y-111178528D01*
X169815923Y-111190211D01*
X169926077Y-111197564D01*
X170054257Y-111199433D01*
X170190810Y-111196229D01*
X170326085Y-111188361D01*
X170450430Y-111176238D01*
X170554193Y-111160270D01*
X170627722Y-111140866D01*
X170652085Y-111130595D01*
X170677230Y-111111236D01*
X170693381Y-111077100D01*
X170708491Y-111015876D01*
X170716403Y-110990739D01*
X170742366Y-110963903D01*
X170795162Y-110949460D01*
X170873450Y-110933675D01*
X170969428Y-110908315D01*
X171060360Y-110878906D01*
X171134813Y-110849194D01*
X171181352Y-110822927D01*
X171227519Y-110785543D01*
X171143760Y-110730113D01*
X171114267Y-110709647D01*
X171075273Y-110678509D01*
X171060000Y-110659941D01*
X171065888Y-110653262D01*
X171100215Y-110637112D01*
X171155000Y-110619679D01*
X171176635Y-110613490D01*
X171265335Y-110582508D01*
X171360984Y-110542341D01*
X171452315Y-110498320D01*
X171528063Y-110455773D01*
X171576963Y-110420033D01*
X171597249Y-110396908D01*
X171604389Y-110365544D01*
X171573898Y-110346774D01*
X171505514Y-110340306D01*
X171481224Y-110338947D01*
X171440067Y-110322097D01*
X171408495Y-110277087D01*
X171396097Y-110252449D01*
X171387457Y-110221431D01*
X171401541Y-110196884D01*
X171442981Y-110163563D01*
X171461512Y-110149126D01*
X171530945Y-110088902D01*
X171601734Y-110019850D01*
X171665829Y-109950542D01*
X171715178Y-109889552D01*
X171741729Y-109845452D01*
X171744371Y-109838267D01*
X171751826Y-109796290D01*
X171734364Y-109770594D01*
X171733882Y-109770234D01*
X171705094Y-109738063D01*
X171675169Y-109690312D01*
X171673236Y-109686595D01*
X171655920Y-109644935D01*
X171657788Y-109609618D01*
X171679521Y-109560312D01*
X171682645Y-109554025D01*
X171717897Y-109461314D01*
X171741907Y-109347810D01*
X171755608Y-109207411D01*
X171759932Y-109034015D01*
X171759863Y-108790000D01*
X171619416Y-108943791D01*
X171421825Y-109139992D01*
X171191458Y-109322182D01*
X170949716Y-109466437D01*
X170696052Y-109573132D01*
X170507581Y-109644866D01*
X170249287Y-109768895D01*
X170005848Y-109915542D01*
X169785414Y-110079745D01*
X169596134Y-110256440D01*
X169575024Y-110279309D01*
X169472418Y-110411773D01*
X169408401Y-110540466D01*
X169382314Y-110668269D01*
X169232626Y-110668269D01*
X169239104Y-110624394D01*
X169252480Y-110562480D01*
X169293478Y-110442040D01*
X169355944Y-110328067D01*
X169444715Y-110212580D01*
X169564631Y-110087603D01*
X169622148Y-110033927D01*
X169851074Y-109849685D01*
X170105342Y-109685294D01*
X170374976Y-109546708D01*
X170650000Y-109439879D01*
X170739402Y-109408471D01*
X170882005Y-109345822D01*
X171019824Y-109267042D01*
X171162099Y-109166585D01*
X171318072Y-109038904D01*
X171356825Y-109004009D01*
X171454852Y-108906102D01*
X171556086Y-108794070D01*
X171649047Y-108680953D01*
X171722258Y-108579790D01*
X171739724Y-108555439D01*
X171761562Y-108542961D01*
X171788576Y-108558818D01*
X171816535Y-108587310D01*
X171854137Y-108653098D01*
X171881739Y-108746452D01*
X171901499Y-108873386D01*
X171908434Y-108966381D01*
X171908463Y-109034015D01*
X171908498Y-109116551D01*
G37*
%TD*%
M02*
