%TF.GenerationSoftware,KiCad,Pcbnew,9.0.4*%
%TF.CreationDate,2025-11-12T18:25:33-05:00*%
%TF.ProjectId,hermes,6865726d-6573-42e6-9b69-6361645f7063,rev?*%
%TF.SameCoordinates,Original*%
%TF.FileFunction,Copper,L1,Top*%
%TF.FilePolarity,Positive*%
%FSLAX46Y46*%
G04 Gerber Fmt 4.6, Leading zero omitted, Abs format (unit mm)*
G04 Created by KiCad (PCBNEW 9.0.4) date 2025-11-12 18:25:33*
%MOMM*%
%LPD*%
G01*
G04 APERTURE LIST*
G04 Aperture macros list*
%AMRoundRect*
0 Rectangle with rounded corners*
0 $1 Rounding radius*
0 $2 $3 $4 $5 $6 $7 $8 $9 X,Y pos of 4 corners*
0 Add a 4 corners polygon primitive as box body*
4,1,4,$2,$3,$4,$5,$6,$7,$8,$9,$2,$3,0*
0 Add four circle primitives for the rounded corners*
1,1,$1+$1,$2,$3*
1,1,$1+$1,$4,$5*
1,1,$1+$1,$6,$7*
1,1,$1+$1,$8,$9*
0 Add four rect primitives between the rounded corners*
20,1,$1+$1,$2,$3,$4,$5,0*
20,1,$1+$1,$4,$5,$6,$7,0*
20,1,$1+$1,$6,$7,$8,$9,0*
20,1,$1+$1,$8,$9,$2,$3,0*%
G04 Aperture macros list end*
%TA.AperFunction,SMDPad,CuDef*%
%ADD10RoundRect,0.250000X0.262500X0.450000X-0.262500X0.450000X-0.262500X-0.450000X0.262500X-0.450000X0*%
%TD*%
%TA.AperFunction,SMDPad,CuDef*%
%ADD11RoundRect,0.250000X-0.262500X-0.450000X0.262500X-0.450000X0.262500X0.450000X-0.262500X0.450000X0*%
%TD*%
%TA.AperFunction,ComponentPad*%
%ADD12R,0.850000X0.850000*%
%TD*%
%TA.AperFunction,ComponentPad*%
%ADD13C,0.850000*%
%TD*%
%TA.AperFunction,SMDPad,CuDef*%
%ADD14RoundRect,0.250000X0.475000X-0.250000X0.475000X0.250000X-0.475000X0.250000X-0.475000X-0.250000X0*%
%TD*%
%TA.AperFunction,SMDPad,CuDef*%
%ADD15RoundRect,0.250000X-0.250000X-0.475000X0.250000X-0.475000X0.250000X0.475000X-0.250000X0.475000X0*%
%TD*%
%TA.AperFunction,SMDPad,CuDef*%
%ADD16RoundRect,0.062500X-0.127500X-0.062500X0.127500X-0.062500X0.127500X0.062500X-0.127500X0.062500X0*%
%TD*%
%TA.AperFunction,SMDPad,CuDef*%
%ADD17RoundRect,0.125000X-0.125000X-0.125000X0.125000X-0.125000X0.125000X0.125000X-0.125000X0.125000X0*%
%TD*%
%TA.AperFunction,ViaPad*%
%ADD18C,0.600000*%
%TD*%
%TA.AperFunction,Conductor*%
%ADD19C,0.200000*%
%TD*%
G04 APERTURE END LIST*
D10*
%TO.P,R8,1*%
%TO.N,+3V3*%
X167912500Y-107250000D03*
%TO.P,R8,2*%
%TO.N,TOF_INT*%
X166087500Y-107250000D03*
%TD*%
%TO.P,R7,1*%
%TO.N,+3V3*%
X167912500Y-109750000D03*
%TO.P,R7,2*%
%TO.N,XSHUT*%
X166087500Y-109750000D03*
%TD*%
D11*
%TO.P,R4,1*%
%TO.N,+3V3*%
X170087500Y-107250000D03*
%TO.P,R4,2*%
%TO.N,SCL*%
X171912500Y-107250000D03*
%TD*%
%TO.P,R3,1*%
%TO.N,+3V3*%
X170087500Y-109750000D03*
%TO.P,R3,2*%
%TO.N,SDA*%
X171912500Y-109750000D03*
%TD*%
D12*
%TO.P,J2,1,Pin_1*%
%TO.N,GND*%
X177000000Y-110000000D03*
D13*
%TO.P,J2,2,Pin_2*%
%TO.N,XSHUT*%
X177000000Y-111000000D03*
%TO.P,J2,3,Pin_3*%
%TO.N,SCL*%
X177000000Y-112000000D03*
%TO.P,J2,4,Pin_4*%
%TO.N,SDA*%
X177000000Y-113000000D03*
%TO.P,J2,5,Pin_5*%
%TO.N,TOF_INT*%
X177000000Y-114000000D03*
%TO.P,J2,6,Pin_6*%
%TO.N,+3V3*%
X177000000Y-115000000D03*
%TD*%
D14*
%TO.P,C4,1*%
%TO.N,+3V3*%
X166000000Y-114450000D03*
%TO.P,C4,2*%
%TO.N,GND*%
X166000000Y-112550000D03*
%TD*%
D15*
%TO.P,C3,1*%
%TO.N,+3V3*%
X166050000Y-117000000D03*
%TO.P,C3,2*%
%TO.N,GND*%
X167950000Y-117000000D03*
%TD*%
D16*
%TO.P,U3,1,AVDDVCSEL*%
%TO.N,+3V3*%
X169160000Y-112825000D03*
D17*
X169300000Y-112700000D03*
%TO.P,U3,2,AVSSVCSEL*%
%TO.N,GND*%
X170100000Y-112700000D03*
%TO.P,U3,3,GND*%
X170900000Y-112700000D03*
%TO.P,U3,4,GND*%
X171700000Y-112700000D03*
%TO.P,U3,5,XSHUT*%
%TO.N,XSHUT*%
X172500000Y-112700000D03*
%TO.P,U3,6,GND*%
%TO.N,GND*%
X172500000Y-113500000D03*
%TO.P,U3,7,GPIO1*%
%TO.N,TOF_INT*%
X172500000Y-114300000D03*
%TO.P,U3,8,DNC*%
%TO.N,unconnected-(U3-DNC-Pad8)*%
X171700000Y-114300000D03*
%TO.P,U3,9,SDA*%
%TO.N,SDA*%
X170900000Y-114300000D03*
%TO.P,U3,10,SCL*%
%TO.N,SCL*%
X170100000Y-114300000D03*
%TO.P,U3,11,AVDD*%
%TO.N,+3V3*%
X169300000Y-114300000D03*
%TO.P,U3,12,GND*%
%TO.N,GND*%
X169300000Y-113500000D03*
%TD*%
D18*
%TO.N,SCL*%
X170750000Y-115250000D03*
%TO.N,SDA*%
X172000000Y-115250000D03*
%TO.N,XSHUT*%
X172000000Y-111500000D03*
%TO.N,GND*%
X167500000Y-113000000D03*
X172000000Y-113500000D03*
X171000000Y-113500000D03*
X170000000Y-113500000D03*
%TD*%
D19*
%TO.N,SCL*%
X170100000Y-114300000D02*
X170100000Y-114600000D01*
X170100000Y-114600000D02*
X170750000Y-115250000D01*
%TO.N,SDA*%
X170900000Y-114300000D02*
X170900000Y-114400000D01*
X170900000Y-114400000D02*
X171750000Y-115250000D01*
X171750000Y-115250000D02*
X172000000Y-115250000D01*
%TO.N,XSHUT*%
X172500000Y-112000000D02*
X172000000Y-111500000D01*
X172500000Y-112700000D02*
X172500000Y-112000000D01*
%TO.N,SDA*%
X177000000Y-113000000D02*
X175162500Y-113000000D01*
X175162500Y-113000000D02*
X171912500Y-109750000D01*
%TO.N,SCL*%
X171912500Y-107250000D02*
X176662500Y-112000000D01*
X176662500Y-112000000D02*
X177000000Y-112000000D01*
%TO.N,XSHUT*%
X166087500Y-109750000D02*
X167000000Y-108837500D01*
X176000000Y-108754000D02*
X176000000Y-110452000D01*
X173248000Y-106002000D02*
X176000000Y-108754000D01*
X167000000Y-108837500D02*
X167000000Y-106654600D01*
X167000000Y-106654600D02*
X167652600Y-106002000D01*
X167652600Y-106002000D02*
X173248000Y-106002000D01*
X176000000Y-110452000D02*
X176548000Y-111000000D01*
X176548000Y-111000000D02*
X177000000Y-111000000D01*
%TO.N,TOF_INT*%
X166087500Y-107250000D02*
X166087500Y-107000000D01*
X166087500Y-107000000D02*
X167486500Y-105601000D01*
X177899000Y-108899000D02*
X177899000Y-113702040D01*
X177899000Y-113702040D02*
X177601040Y-114000000D01*
X167486500Y-105601000D02*
X174601000Y-105601000D01*
X174601000Y-105601000D02*
X177899000Y-108899000D01*
X177601040Y-114000000D02*
X177000000Y-114000000D01*
%TO.N,GND*%
X167950000Y-117000000D02*
X167950000Y-113450000D01*
X167950000Y-113450000D02*
X167500000Y-113000000D01*
X167050000Y-112550000D02*
X167500000Y-113000000D01*
X166000000Y-112550000D02*
X167050000Y-112550000D01*
X171700000Y-112700000D02*
X170100000Y-112700000D01*
X171700000Y-112700000D02*
X171700000Y-113200000D01*
X171700000Y-113200000D02*
X172000000Y-113500000D01*
X170900000Y-112700000D02*
X170900000Y-113400000D01*
X170900000Y-113400000D02*
X171000000Y-113500000D01*
X170100000Y-112700000D02*
X170100000Y-113400000D01*
X170100000Y-113400000D02*
X170000000Y-113500000D01*
X169300000Y-113500000D02*
X172500000Y-113500000D01*
%TO.N,+3V3*%
X167912500Y-109500000D02*
X168232500Y-109500000D01*
X166050000Y-114500000D02*
X166000000Y-114450000D01*
%TO.N,TOF_INT*%
X176700000Y-114300000D02*
X172500000Y-114300000D01*
X177000000Y-114000000D02*
X176700000Y-114300000D01*
%TD*%
%TA.AperFunction,Conductor*%
%TO.N,+3V3*%
G36*
X166505441Y-105520185D02*
G01*
X166551196Y-105572989D01*
X166561140Y-105642147D01*
X166532115Y-105705703D01*
X166526083Y-105712181D01*
X166225082Y-106013181D01*
X166163759Y-106046666D01*
X166137401Y-106049500D01*
X165774998Y-106049500D01*
X165774980Y-106049501D01*
X165672203Y-106060000D01*
X165672200Y-106060001D01*
X165505668Y-106115185D01*
X165505663Y-106115187D01*
X165356342Y-106207289D01*
X165232289Y-106331342D01*
X165140187Y-106480663D01*
X165140186Y-106480666D01*
X165085001Y-106647203D01*
X165085001Y-106647204D01*
X165085000Y-106647204D01*
X165074500Y-106749983D01*
X165074500Y-107750001D01*
X165074501Y-107750019D01*
X165085000Y-107852796D01*
X165085001Y-107852799D01*
X165125045Y-107973641D01*
X165140186Y-108019334D01*
X165232288Y-108168656D01*
X165356344Y-108292712D01*
X165505666Y-108384814D01*
X165505667Y-108384814D01*
X165505670Y-108384816D01*
X165511677Y-108387617D01*
X165564117Y-108433788D01*
X165583271Y-108500981D01*
X165563057Y-108567862D01*
X165511677Y-108612383D01*
X165505670Y-108615183D01*
X165356342Y-108707289D01*
X165232289Y-108831342D01*
X165140187Y-108980663D01*
X165140185Y-108980668D01*
X165117179Y-109050095D01*
X165085001Y-109147203D01*
X165085001Y-109147204D01*
X165085000Y-109147204D01*
X165074500Y-109249983D01*
X165074500Y-110250001D01*
X165074501Y-110250019D01*
X165085000Y-110352796D01*
X165085001Y-110352799D01*
X165117179Y-110449903D01*
X165140186Y-110519334D01*
X165232288Y-110668656D01*
X165356344Y-110792712D01*
X165505666Y-110884814D01*
X165672203Y-110939999D01*
X165774991Y-110950500D01*
X166400008Y-110950499D01*
X166400016Y-110950498D01*
X166400019Y-110950498D01*
X166456302Y-110944748D01*
X166502797Y-110939999D01*
X166669334Y-110884814D01*
X166818656Y-110792712D01*
X166912675Y-110698692D01*
X166973994Y-110665210D01*
X167043686Y-110670194D01*
X167088034Y-110698695D01*
X167181654Y-110792315D01*
X167330875Y-110884356D01*
X167330880Y-110884358D01*
X167497302Y-110939505D01*
X167497309Y-110939506D01*
X167600019Y-110949999D01*
X168162500Y-110949999D01*
X168224972Y-110949999D01*
X168224986Y-110949998D01*
X168327697Y-110939505D01*
X168494119Y-110884358D01*
X168494124Y-110884356D01*
X168643345Y-110792315D01*
X168767315Y-110668345D01*
X168859356Y-110519124D01*
X168859360Y-110519115D01*
X168882293Y-110449906D01*
X168922064Y-110392460D01*
X168986580Y-110365636D01*
X169055356Y-110377950D01*
X169106556Y-110425492D01*
X169117705Y-110449903D01*
X169140642Y-110519121D01*
X169140643Y-110519124D01*
X169232684Y-110668345D01*
X169356654Y-110792315D01*
X169505875Y-110884356D01*
X169505880Y-110884358D01*
X169672302Y-110939505D01*
X169672309Y-110939506D01*
X169775019Y-110949999D01*
X169837499Y-110949998D01*
X169837500Y-110949998D01*
X169837500Y-110000000D01*
X169064459Y-110000000D01*
X169026356Y-110020805D01*
X168956664Y-110015819D01*
X168932050Y-110000000D01*
X168162500Y-110000000D01*
X168162500Y-110949999D01*
X167600019Y-110949999D01*
X167662499Y-110949998D01*
X167662500Y-110949998D01*
X167662500Y-109500000D01*
X168162500Y-109500000D01*
X168935540Y-109500000D01*
X168973638Y-109479195D01*
X169043330Y-109484178D01*
X169067950Y-109500000D01*
X169837500Y-109500000D01*
X169837500Y-107500000D01*
X169064459Y-107500000D01*
X169026356Y-107520805D01*
X168956664Y-107515819D01*
X168932050Y-107500000D01*
X168162500Y-107500000D01*
X168162500Y-109500000D01*
X167662500Y-109500000D01*
X167662500Y-107374000D01*
X167682185Y-107306961D01*
X167734989Y-107261206D01*
X167786500Y-107250000D01*
X167912500Y-107250000D01*
X167912500Y-107124000D01*
X167932185Y-107056961D01*
X167984989Y-107011206D01*
X168036500Y-107000000D01*
X168935540Y-107000000D01*
X168973638Y-106979195D01*
X169043330Y-106984178D01*
X169067950Y-107000000D01*
X169963500Y-107000000D01*
X170030539Y-107019685D01*
X170076294Y-107072489D01*
X170087500Y-107124000D01*
X170087500Y-107250000D01*
X170213500Y-107250000D01*
X170280539Y-107269685D01*
X170326294Y-107322489D01*
X170337500Y-107374000D01*
X170337500Y-110949999D01*
X170399972Y-110949999D01*
X170399986Y-110949998D01*
X170502697Y-110939505D01*
X170669119Y-110884358D01*
X170669124Y-110884356D01*
X170818342Y-110792317D01*
X170911964Y-110698695D01*
X170973287Y-110665210D01*
X171042979Y-110670194D01*
X171087327Y-110698695D01*
X171181344Y-110792712D01*
X171304520Y-110868687D01*
X171351244Y-110920635D01*
X171362467Y-110989598D01*
X171342526Y-111043116D01*
X171290608Y-111120816D01*
X171290602Y-111120827D01*
X171230264Y-111266498D01*
X171230261Y-111266510D01*
X171199500Y-111421153D01*
X171199500Y-111578846D01*
X171230261Y-111733489D01*
X171230264Y-111733501D01*
X171250101Y-111781392D01*
X171257570Y-111850862D01*
X171226294Y-111913341D01*
X171166205Y-111948992D01*
X171125814Y-111952462D01*
X171088165Y-111949500D01*
X170711849Y-111949500D01*
X170711824Y-111949501D01*
X170676375Y-111952290D01*
X170534594Y-111993481D01*
X170465406Y-111993481D01*
X170351786Y-111960472D01*
X170323627Y-111952291D01*
X170323625Y-111952290D01*
X170323620Y-111952290D01*
X170288163Y-111949500D01*
X169911849Y-111949500D01*
X169911824Y-111949501D01*
X169876376Y-111952290D01*
X169850692Y-111959751D01*
X169733696Y-111993741D01*
X169664508Y-111993741D01*
X169550000Y-111960472D01*
X169550000Y-112064047D01*
X169530315Y-112131086D01*
X169513681Y-112151728D01*
X169476834Y-112188574D01*
X169476827Y-112188583D01*
X169396382Y-112324609D01*
X169396380Y-112324614D01*
X169352292Y-112476366D01*
X169352290Y-112476379D01*
X169349500Y-112511829D01*
X169349500Y-112625500D01*
X169329815Y-112692539D01*
X169277011Y-112738294D01*
X169225501Y-112749500D01*
X169111848Y-112749500D01*
X169111824Y-112749501D01*
X169076372Y-112752291D01*
X168924614Y-112796380D01*
X168924609Y-112796382D01*
X168788583Y-112876827D01*
X168788574Y-112876834D01*
X168751730Y-112913680D01*
X168690408Y-112947166D01*
X168664048Y-112950000D01*
X168449793Y-112950000D01*
X168443921Y-112953724D01*
X168374053Y-112953306D01*
X168315502Y-112915180D01*
X168288083Y-112858731D01*
X168269738Y-112766510D01*
X168269737Y-112766503D01*
X168258053Y-112738294D01*
X168209397Y-112620827D01*
X168209390Y-112620814D01*
X168157927Y-112543795D01*
X168121789Y-112489710D01*
X168082079Y-112450000D01*
X168560473Y-112450000D01*
X169050000Y-112450000D01*
X169050000Y-111960472D01*
X168924812Y-111996843D01*
X168924811Y-111996844D01*
X168788891Y-112077226D01*
X168788883Y-112077232D01*
X168677232Y-112188883D01*
X168677226Y-112188891D01*
X168596844Y-112324811D01*
X168596843Y-112324812D01*
X168560473Y-112450000D01*
X168082079Y-112450000D01*
X168010292Y-112378213D01*
X168010288Y-112378210D01*
X167879185Y-112290609D01*
X167879172Y-112290602D01*
X167733501Y-112230264D01*
X167733491Y-112230261D01*
X167578151Y-112199362D01*
X167516241Y-112166977D01*
X167514662Y-112165426D01*
X167418717Y-112069481D01*
X167418716Y-112069480D01*
X167331904Y-112019360D01*
X167281785Y-111990423D01*
X167184181Y-111964269D01*
X167178101Y-111961935D01*
X167155298Y-111944521D01*
X167130795Y-111929585D01*
X167124108Y-111920701D01*
X167122572Y-111919528D01*
X167121966Y-111917855D01*
X167117011Y-111911272D01*
X167097216Y-111879179D01*
X167067712Y-111831344D01*
X166943656Y-111707288D01*
X166794334Y-111615186D01*
X166627797Y-111560001D01*
X166627795Y-111560000D01*
X166525010Y-111549500D01*
X165474998Y-111549500D01*
X165474980Y-111549501D01*
X165372203Y-111560000D01*
X165372200Y-111560001D01*
X165205668Y-111615185D01*
X165205663Y-111615187D01*
X165056342Y-111707289D01*
X164932289Y-111831342D01*
X164840187Y-111980663D01*
X164840185Y-111980668D01*
X164835853Y-111993741D01*
X164785001Y-112147203D01*
X164785001Y-112147204D01*
X164785000Y-112147204D01*
X164774500Y-112249983D01*
X164774500Y-112850001D01*
X164774501Y-112850019D01*
X164785000Y-112952796D01*
X164785001Y-112952799D01*
X164825624Y-113075390D01*
X164840186Y-113119334D01*
X164932288Y-113268656D01*
X165056344Y-113392712D01*
X165059628Y-113394737D01*
X165059653Y-113394753D01*
X165061445Y-113396746D01*
X165062011Y-113397193D01*
X165061934Y-113397289D01*
X165106379Y-113446699D01*
X165117603Y-113515661D01*
X165089761Y-113579744D01*
X165059665Y-113605826D01*
X165056660Y-113607679D01*
X165056655Y-113607683D01*
X164932684Y-113731654D01*
X164840643Y-113880875D01*
X164840641Y-113880880D01*
X164785494Y-114047302D01*
X164785493Y-114047309D01*
X164775000Y-114150013D01*
X164775000Y-114200000D01*
X165876000Y-114200000D01*
X165943039Y-114219685D01*
X165988794Y-114272489D01*
X166000000Y-114324000D01*
X166000000Y-114450000D01*
X166126000Y-114450000D01*
X166193039Y-114469685D01*
X166238794Y-114522489D01*
X166250000Y-114574000D01*
X166250000Y-115449999D01*
X166524972Y-115449999D01*
X166524986Y-115449998D01*
X166627697Y-115439505D01*
X166794119Y-115384358D01*
X166794124Y-115384356D01*
X166943345Y-115292315D01*
X167067317Y-115168343D01*
X167119961Y-115082994D01*
X167171909Y-115036269D01*
X167240871Y-115025046D01*
X167304954Y-115052890D01*
X167343810Y-115110958D01*
X167349500Y-115148090D01*
X167349500Y-115790201D01*
X167329815Y-115857240D01*
X167290598Y-115895739D01*
X167231344Y-115932287D01*
X167107288Y-116056343D01*
X167107283Y-116056349D01*
X167105241Y-116059661D01*
X167103247Y-116061453D01*
X167102807Y-116062011D01*
X167102711Y-116061935D01*
X167053291Y-116106383D01*
X166984328Y-116117602D01*
X166920247Y-116089755D01*
X166894168Y-116059656D01*
X166892319Y-116056659D01*
X166892316Y-116056655D01*
X166768345Y-115932684D01*
X166619124Y-115840643D01*
X166619119Y-115840641D01*
X166452697Y-115785494D01*
X166452690Y-115785493D01*
X166349986Y-115775000D01*
X166300000Y-115775000D01*
X166300000Y-118224999D01*
X166349972Y-118224999D01*
X166349986Y-118224998D01*
X166452697Y-118214505D01*
X166619119Y-118159358D01*
X166619124Y-118159356D01*
X166768345Y-118067315D01*
X166892318Y-117943342D01*
X166894165Y-117940348D01*
X166895969Y-117938724D01*
X166896798Y-117937677D01*
X166896976Y-117937818D01*
X166946110Y-117893621D01*
X167015073Y-117882396D01*
X167079156Y-117910236D01*
X167105243Y-117940341D01*
X167107288Y-117943656D01*
X167231344Y-118067712D01*
X167380666Y-118159814D01*
X167547203Y-118214999D01*
X167649991Y-118225500D01*
X168250008Y-118225499D01*
X168250016Y-118225498D01*
X168250019Y-118225498D01*
X168306302Y-118219748D01*
X168352797Y-118214999D01*
X168519334Y-118159814D01*
X168668656Y-118067712D01*
X168792712Y-117943656D01*
X168884814Y-117794334D01*
X168939999Y-117627797D01*
X168950500Y-117525009D01*
X168950499Y-116474992D01*
X168939999Y-116372203D01*
X168884814Y-116205666D01*
X168792712Y-116056344D01*
X168668656Y-115932288D01*
X168668655Y-115932287D01*
X168609402Y-115895739D01*
X168562678Y-115843791D01*
X168550500Y-115790201D01*
X168550500Y-114983746D01*
X168570185Y-114916707D01*
X168622989Y-114870952D01*
X168692147Y-114861008D01*
X168755703Y-114890033D01*
X168762181Y-114896065D01*
X168788883Y-114922767D01*
X168788891Y-114922773D01*
X168924808Y-115003154D01*
X168924814Y-115003156D01*
X169049999Y-115039525D01*
X169050000Y-115039525D01*
X169050000Y-114374499D01*
X169052550Y-114365813D01*
X169051262Y-114356852D01*
X169062240Y-114332811D01*
X169069685Y-114307460D01*
X169076525Y-114301532D01*
X169080287Y-114293296D01*
X169102521Y-114279006D01*
X169122489Y-114261705D01*
X169133003Y-114259417D01*
X169139065Y-114255522D01*
X169173994Y-114250499D01*
X169225501Y-114250499D01*
X169292539Y-114270184D01*
X169338294Y-114322988D01*
X169349500Y-114374498D01*
X169349500Y-114488150D01*
X169349501Y-114488176D01*
X169352291Y-114523627D01*
X169396380Y-114675385D01*
X169396382Y-114675390D01*
X169476827Y-114811416D01*
X169476834Y-114811425D01*
X169513680Y-114848270D01*
X169547166Y-114909592D01*
X169550000Y-114935952D01*
X169550000Y-115039526D01*
X169588285Y-115028403D01*
X169601577Y-115028440D01*
X169614033Y-115023795D01*
X169635839Y-115028538D01*
X169658155Y-115028602D01*
X169670838Y-115036151D01*
X169682306Y-115038646D01*
X169710552Y-115059791D01*
X169710558Y-115059794D01*
X169731284Y-115080520D01*
X169731286Y-115080521D01*
X169738355Y-115087590D01*
X169915425Y-115264660D01*
X169948910Y-115325983D01*
X169949361Y-115328149D01*
X169980261Y-115483491D01*
X169980264Y-115483501D01*
X170040602Y-115629172D01*
X170040609Y-115629185D01*
X170128210Y-115760288D01*
X170128213Y-115760292D01*
X170239707Y-115871786D01*
X170239711Y-115871789D01*
X170370814Y-115959390D01*
X170370827Y-115959397D01*
X170516498Y-116019735D01*
X170516503Y-116019737D01*
X170671153Y-116050499D01*
X170671156Y-116050500D01*
X170671158Y-116050500D01*
X170828844Y-116050500D01*
X170828845Y-116050499D01*
X170983497Y-116019737D01*
X171129179Y-115959394D01*
X171260289Y-115871789D01*
X171272669Y-115859409D01*
X171287319Y-115844760D01*
X171348642Y-115811275D01*
X171418334Y-115816259D01*
X171462681Y-115844760D01*
X171489707Y-115871786D01*
X171489711Y-115871789D01*
X171620814Y-115959390D01*
X171620827Y-115959397D01*
X171766498Y-116019735D01*
X171766503Y-116019737D01*
X171921153Y-116050499D01*
X171921156Y-116050500D01*
X171921158Y-116050500D01*
X172078844Y-116050500D01*
X172078845Y-116050499D01*
X172233497Y-116019737D01*
X172379179Y-115959394D01*
X172510289Y-115871789D01*
X172573578Y-115808500D01*
X176545050Y-115808500D01*
X176561849Y-115819725D01*
X176561855Y-115819728D01*
X176730182Y-115889451D01*
X176730194Y-115889454D01*
X176908890Y-115924999D01*
X176908894Y-115925000D01*
X177091106Y-115925000D01*
X177091109Y-115924999D01*
X177269805Y-115889454D01*
X177269813Y-115889452D01*
X177438151Y-115819724D01*
X177438154Y-115819723D01*
X177454947Y-115808500D01*
X177454948Y-115808500D01*
X177000001Y-115353553D01*
X177000000Y-115353553D01*
X176545050Y-115808500D01*
X172573578Y-115808500D01*
X172621789Y-115760289D01*
X172641961Y-115730099D01*
X172666485Y-115693398D01*
X172709390Y-115629185D01*
X172709390Y-115629184D01*
X172709394Y-115629179D01*
X172769737Y-115483497D01*
X172800500Y-115328842D01*
X172800500Y-115171158D01*
X172799940Y-115168345D01*
X172795273Y-115144881D01*
X172801500Y-115075289D01*
X172844362Y-115020111D01*
X172854781Y-115013364D01*
X172867823Y-115005816D01*
X172875390Y-115003618D01*
X173011420Y-114923170D01*
X173012499Y-114922090D01*
X173020992Y-114917176D01*
X173047110Y-114910811D01*
X173072142Y-114900985D01*
X173083101Y-114900500D01*
X175951000Y-114900500D01*
X176018039Y-114920185D01*
X176063794Y-114972989D01*
X176075000Y-115024500D01*
X176075000Y-115091109D01*
X176110545Y-115269805D01*
X176110548Y-115269817D01*
X176180271Y-115438145D01*
X176191498Y-115454947D01*
X176705254Y-114941191D01*
X176712221Y-114937386D01*
X176716866Y-114930946D01*
X176742451Y-114920879D01*
X176766577Y-114907706D01*
X176767635Y-114907696D01*
X176750000Y-114950272D01*
X176750000Y-115049728D01*
X176788060Y-115141614D01*
X176858386Y-115211940D01*
X176950272Y-115250000D01*
X177049728Y-115250000D01*
X177141614Y-115211940D01*
X177211940Y-115141614D01*
X177250000Y-115049728D01*
X177250000Y-114950272D01*
X177234079Y-114911837D01*
X177252463Y-114913482D01*
X177294745Y-114941191D01*
X177808500Y-115454948D01*
X177863350Y-115449548D01*
X177931995Y-115462569D01*
X177982704Y-115510635D01*
X177999500Y-115572951D01*
X177999500Y-119375500D01*
X177979815Y-119442539D01*
X177927011Y-119488294D01*
X177875500Y-119499500D01*
X163124500Y-119499500D01*
X163057461Y-119479815D01*
X163011706Y-119427011D01*
X163000500Y-119375500D01*
X163000500Y-117524986D01*
X165050001Y-117524986D01*
X165060494Y-117627697D01*
X165115641Y-117794119D01*
X165115643Y-117794124D01*
X165207684Y-117943345D01*
X165331654Y-118067315D01*
X165480875Y-118159356D01*
X165480880Y-118159358D01*
X165647302Y-118214505D01*
X165647309Y-118214506D01*
X165750019Y-118224999D01*
X165799999Y-118224998D01*
X165800000Y-118224998D01*
X165800000Y-117250000D01*
X165050001Y-117250000D01*
X165050001Y-117524986D01*
X163000500Y-117524986D01*
X163000500Y-116475013D01*
X165050000Y-116475013D01*
X165050000Y-116750000D01*
X165800000Y-116750000D01*
X165800000Y-115775000D01*
X165799999Y-115774999D01*
X165750029Y-115775000D01*
X165750011Y-115775001D01*
X165647302Y-115785494D01*
X165480880Y-115840641D01*
X165480875Y-115840643D01*
X165331654Y-115932684D01*
X165207684Y-116056654D01*
X165115643Y-116205875D01*
X165115641Y-116205880D01*
X165060494Y-116372302D01*
X165060493Y-116372309D01*
X165050000Y-116475013D01*
X163000500Y-116475013D01*
X163000500Y-114749986D01*
X164775001Y-114749986D01*
X164785494Y-114852697D01*
X164840641Y-115019119D01*
X164840643Y-115019124D01*
X164932684Y-115168345D01*
X165056654Y-115292315D01*
X165205875Y-115384356D01*
X165205880Y-115384358D01*
X165372302Y-115439505D01*
X165372309Y-115439506D01*
X165475019Y-115449999D01*
X165749999Y-115449999D01*
X165750000Y-115449998D01*
X165750000Y-114700000D01*
X164775001Y-114700000D01*
X164775001Y-114749986D01*
X163000500Y-114749986D01*
X163000500Y-105624500D01*
X163020185Y-105557461D01*
X163072989Y-105511706D01*
X163124500Y-105500500D01*
X166438402Y-105500500D01*
X166505441Y-105520185D01*
G37*
%TD.AperFunction*%
%TD*%
M02*
