%TF.GenerationSoftware,KiCad,Pcbnew,9.0.4*%
%TF.CreationDate,2025-11-12T18:25:33-05:00*%
%TF.ProjectId,hermes,6865726d-6573-42e6-9b69-6361645f7063,rev?*%
%TF.SameCoordinates,Original*%
%TF.FileFunction,Legend,Top*%
%TF.FilePolarity,Positive*%
%FSLAX46Y46*%
G04 Gerber Fmt 4.6, Leading zero omitted, Abs format (unit mm)*
G04 Created by KiCad (PCBNEW 9.0.4) date 2025-11-12 18:25:33*
%MOMM*%
%LPD*%
G01*
G04 APERTURE LIST*
%ADD10C,0.150000*%
%ADD11C,0.120000*%
G04 APERTURE END LIST*
D10*
X164245833Y-107704819D02*
X163912500Y-107228628D01*
X163674405Y-107704819D02*
X163674405Y-106704819D01*
X163674405Y-106704819D02*
X164055357Y-106704819D01*
X164055357Y-106704819D02*
X164150595Y-106752438D01*
X164150595Y-106752438D02*
X164198214Y-106800057D01*
X164198214Y-106800057D02*
X164245833Y-106895295D01*
X164245833Y-106895295D02*
X164245833Y-107038152D01*
X164245833Y-107038152D02*
X164198214Y-107133390D01*
X164198214Y-107133390D02*
X164150595Y-107181009D01*
X164150595Y-107181009D02*
X164055357Y-107228628D01*
X164055357Y-107228628D02*
X163674405Y-107228628D01*
X164817262Y-107133390D02*
X164722024Y-107085771D01*
X164722024Y-107085771D02*
X164674405Y-107038152D01*
X164674405Y-107038152D02*
X164626786Y-106942914D01*
X164626786Y-106942914D02*
X164626786Y-106895295D01*
X164626786Y-106895295D02*
X164674405Y-106800057D01*
X164674405Y-106800057D02*
X164722024Y-106752438D01*
X164722024Y-106752438D02*
X164817262Y-106704819D01*
X164817262Y-106704819D02*
X165007738Y-106704819D01*
X165007738Y-106704819D02*
X165102976Y-106752438D01*
X165102976Y-106752438D02*
X165150595Y-106800057D01*
X165150595Y-106800057D02*
X165198214Y-106895295D01*
X165198214Y-106895295D02*
X165198214Y-106942914D01*
X165198214Y-106942914D02*
X165150595Y-107038152D01*
X165150595Y-107038152D02*
X165102976Y-107085771D01*
X165102976Y-107085771D02*
X165007738Y-107133390D01*
X165007738Y-107133390D02*
X164817262Y-107133390D01*
X164817262Y-107133390D02*
X164722024Y-107181009D01*
X164722024Y-107181009D02*
X164674405Y-107228628D01*
X164674405Y-107228628D02*
X164626786Y-107323866D01*
X164626786Y-107323866D02*
X164626786Y-107514342D01*
X164626786Y-107514342D02*
X164674405Y-107609580D01*
X164674405Y-107609580D02*
X164722024Y-107657200D01*
X164722024Y-107657200D02*
X164817262Y-107704819D01*
X164817262Y-107704819D02*
X165007738Y-107704819D01*
X165007738Y-107704819D02*
X165102976Y-107657200D01*
X165102976Y-107657200D02*
X165150595Y-107609580D01*
X165150595Y-107609580D02*
X165198214Y-107514342D01*
X165198214Y-107514342D02*
X165198214Y-107323866D01*
X165198214Y-107323866D02*
X165150595Y-107228628D01*
X165150595Y-107228628D02*
X165102976Y-107181009D01*
X165102976Y-107181009D02*
X165007738Y-107133390D01*
X164245833Y-110204819D02*
X163912500Y-109728628D01*
X163674405Y-110204819D02*
X163674405Y-109204819D01*
X163674405Y-109204819D02*
X164055357Y-109204819D01*
X164055357Y-109204819D02*
X164150595Y-109252438D01*
X164150595Y-109252438D02*
X164198214Y-109300057D01*
X164198214Y-109300057D02*
X164245833Y-109395295D01*
X164245833Y-109395295D02*
X164245833Y-109538152D01*
X164245833Y-109538152D02*
X164198214Y-109633390D01*
X164198214Y-109633390D02*
X164150595Y-109681009D01*
X164150595Y-109681009D02*
X164055357Y-109728628D01*
X164055357Y-109728628D02*
X163674405Y-109728628D01*
X164579167Y-109204819D02*
X165245833Y-109204819D01*
X165245833Y-109204819D02*
X164817262Y-110204819D01*
X173745833Y-107704819D02*
X173412500Y-107228628D01*
X173174405Y-107704819D02*
X173174405Y-106704819D01*
X173174405Y-106704819D02*
X173555357Y-106704819D01*
X173555357Y-106704819D02*
X173650595Y-106752438D01*
X173650595Y-106752438D02*
X173698214Y-106800057D01*
X173698214Y-106800057D02*
X173745833Y-106895295D01*
X173745833Y-106895295D02*
X173745833Y-107038152D01*
X173745833Y-107038152D02*
X173698214Y-107133390D01*
X173698214Y-107133390D02*
X173650595Y-107181009D01*
X173650595Y-107181009D02*
X173555357Y-107228628D01*
X173555357Y-107228628D02*
X173174405Y-107228628D01*
X174602976Y-107038152D02*
X174602976Y-107704819D01*
X174364881Y-106657200D02*
X174126786Y-107371485D01*
X174126786Y-107371485D02*
X174745833Y-107371485D01*
X173745833Y-110204819D02*
X173412500Y-109728628D01*
X173174405Y-110204819D02*
X173174405Y-109204819D01*
X173174405Y-109204819D02*
X173555357Y-109204819D01*
X173555357Y-109204819D02*
X173650595Y-109252438D01*
X173650595Y-109252438D02*
X173698214Y-109300057D01*
X173698214Y-109300057D02*
X173745833Y-109395295D01*
X173745833Y-109395295D02*
X173745833Y-109538152D01*
X173745833Y-109538152D02*
X173698214Y-109633390D01*
X173698214Y-109633390D02*
X173650595Y-109681009D01*
X173650595Y-109681009D02*
X173555357Y-109728628D01*
X173555357Y-109728628D02*
X173174405Y-109728628D01*
X174079167Y-109204819D02*
X174698214Y-109204819D01*
X174698214Y-109204819D02*
X174364881Y-109585771D01*
X174364881Y-109585771D02*
X174507738Y-109585771D01*
X174507738Y-109585771D02*
X174602976Y-109633390D01*
X174602976Y-109633390D02*
X174650595Y-109681009D01*
X174650595Y-109681009D02*
X174698214Y-109776247D01*
X174698214Y-109776247D02*
X174698214Y-110014342D01*
X174698214Y-110014342D02*
X174650595Y-110109580D01*
X174650595Y-110109580D02*
X174602976Y-110157200D01*
X174602976Y-110157200D02*
X174507738Y-110204819D01*
X174507738Y-110204819D02*
X174222024Y-110204819D01*
X174222024Y-110204819D02*
X174126786Y-110157200D01*
X174126786Y-110157200D02*
X174079167Y-110109580D01*
X176666666Y-107844819D02*
X176666666Y-108559104D01*
X176666666Y-108559104D02*
X176619047Y-108701961D01*
X176619047Y-108701961D02*
X176523809Y-108797200D01*
X176523809Y-108797200D02*
X176380952Y-108844819D01*
X176380952Y-108844819D02*
X176285714Y-108844819D01*
X177095238Y-107940057D02*
X177142857Y-107892438D01*
X177142857Y-107892438D02*
X177238095Y-107844819D01*
X177238095Y-107844819D02*
X177476190Y-107844819D01*
X177476190Y-107844819D02*
X177571428Y-107892438D01*
X177571428Y-107892438D02*
X177619047Y-107940057D01*
X177619047Y-107940057D02*
X177666666Y-108035295D01*
X177666666Y-108035295D02*
X177666666Y-108130533D01*
X177666666Y-108130533D02*
X177619047Y-108273390D01*
X177619047Y-108273390D02*
X177047619Y-108844819D01*
X177047619Y-108844819D02*
X177666666Y-108844819D01*
X163833333Y-113859580D02*
X163785714Y-113907200D01*
X163785714Y-113907200D02*
X163642857Y-113954819D01*
X163642857Y-113954819D02*
X163547619Y-113954819D01*
X163547619Y-113954819D02*
X163404762Y-113907200D01*
X163404762Y-113907200D02*
X163309524Y-113811961D01*
X163309524Y-113811961D02*
X163261905Y-113716723D01*
X163261905Y-113716723D02*
X163214286Y-113526247D01*
X163214286Y-113526247D02*
X163214286Y-113383390D01*
X163214286Y-113383390D02*
X163261905Y-113192914D01*
X163261905Y-113192914D02*
X163309524Y-113097676D01*
X163309524Y-113097676D02*
X163404762Y-113002438D01*
X163404762Y-113002438D02*
X163547619Y-112954819D01*
X163547619Y-112954819D02*
X163642857Y-112954819D01*
X163642857Y-112954819D02*
X163785714Y-113002438D01*
X163785714Y-113002438D02*
X163833333Y-113050057D01*
X164690476Y-113288152D02*
X164690476Y-113954819D01*
X164452381Y-112907200D02*
X164214286Y-113621485D01*
X164214286Y-113621485D02*
X164833333Y-113621485D01*
X163833333Y-117359580D02*
X163785714Y-117407200D01*
X163785714Y-117407200D02*
X163642857Y-117454819D01*
X163642857Y-117454819D02*
X163547619Y-117454819D01*
X163547619Y-117454819D02*
X163404762Y-117407200D01*
X163404762Y-117407200D02*
X163309524Y-117311961D01*
X163309524Y-117311961D02*
X163261905Y-117216723D01*
X163261905Y-117216723D02*
X163214286Y-117026247D01*
X163214286Y-117026247D02*
X163214286Y-116883390D01*
X163214286Y-116883390D02*
X163261905Y-116692914D01*
X163261905Y-116692914D02*
X163309524Y-116597676D01*
X163309524Y-116597676D02*
X163404762Y-116502438D01*
X163404762Y-116502438D02*
X163547619Y-116454819D01*
X163547619Y-116454819D02*
X163642857Y-116454819D01*
X163642857Y-116454819D02*
X163785714Y-116502438D01*
X163785714Y-116502438D02*
X163833333Y-116550057D01*
X164166667Y-116454819D02*
X164785714Y-116454819D01*
X164785714Y-116454819D02*
X164452381Y-116835771D01*
X164452381Y-116835771D02*
X164595238Y-116835771D01*
X164595238Y-116835771D02*
X164690476Y-116883390D01*
X164690476Y-116883390D02*
X164738095Y-116931009D01*
X164738095Y-116931009D02*
X164785714Y-117026247D01*
X164785714Y-117026247D02*
X164785714Y-117264342D01*
X164785714Y-117264342D02*
X164738095Y-117359580D01*
X164738095Y-117359580D02*
X164690476Y-117407200D01*
X164690476Y-117407200D02*
X164595238Y-117454819D01*
X164595238Y-117454819D02*
X164309524Y-117454819D01*
X164309524Y-117454819D02*
X164214286Y-117407200D01*
X164214286Y-117407200D02*
X164166667Y-117359580D01*
X170138095Y-110754819D02*
X170138095Y-111564342D01*
X170138095Y-111564342D02*
X170185714Y-111659580D01*
X170185714Y-111659580D02*
X170233333Y-111707200D01*
X170233333Y-111707200D02*
X170328571Y-111754819D01*
X170328571Y-111754819D02*
X170519047Y-111754819D01*
X170519047Y-111754819D02*
X170614285Y-111707200D01*
X170614285Y-111707200D02*
X170661904Y-111659580D01*
X170661904Y-111659580D02*
X170709523Y-111564342D01*
X170709523Y-111564342D02*
X170709523Y-110754819D01*
X171090476Y-110754819D02*
X171709523Y-110754819D01*
X171709523Y-110754819D02*
X171376190Y-111135771D01*
X171376190Y-111135771D02*
X171519047Y-111135771D01*
X171519047Y-111135771D02*
X171614285Y-111183390D01*
X171614285Y-111183390D02*
X171661904Y-111231009D01*
X171661904Y-111231009D02*
X171709523Y-111326247D01*
X171709523Y-111326247D02*
X171709523Y-111564342D01*
X171709523Y-111564342D02*
X171661904Y-111659580D01*
X171661904Y-111659580D02*
X171614285Y-111707200D01*
X171614285Y-111707200D02*
X171519047Y-111754819D01*
X171519047Y-111754819D02*
X171233333Y-111754819D01*
X171233333Y-111754819D02*
X171138095Y-111707200D01*
X171138095Y-111707200D02*
X171090476Y-111659580D01*
D11*
%TO.C,R8*%
X167227064Y-107985000D02*
X166772936Y-107985000D01*
X167227064Y-106515000D02*
X166772936Y-106515000D01*
%TO.C,R7*%
X167227064Y-110485000D02*
X166772936Y-110485000D01*
X167227064Y-109015000D02*
X166772936Y-109015000D01*
%TO.C,R4*%
X170772936Y-106515000D02*
X171227064Y-106515000D01*
X170772936Y-107985000D02*
X171227064Y-107985000D01*
%TO.C,R3*%
X170772936Y-109015000D02*
X171227064Y-109015000D01*
X170772936Y-110485000D02*
X171227064Y-110485000D01*
%TO.C,J2*%
X176255000Y-109265000D02*
X177000000Y-109265000D01*
X176255000Y-110000000D02*
X176255000Y-109265000D01*
X176255000Y-110735000D02*
X176255000Y-115610000D01*
X176255000Y-110735000D02*
X176314435Y-110735000D01*
X176255000Y-115610000D02*
X176589970Y-115610000D01*
X177410030Y-115610000D02*
X177745000Y-115610000D01*
X177685565Y-110735000D02*
X177745000Y-110735000D01*
X177745000Y-110735000D02*
X177745000Y-115610000D01*
%TO.C,C4*%
X165265000Y-113761252D02*
X165265000Y-113238748D01*
X166735000Y-113761252D02*
X166735000Y-113238748D01*
%TO.C,C3*%
X166738748Y-116265000D02*
X167261252Y-116265000D01*
X166738748Y-117735000D02*
X167261252Y-117735000D01*
%TO.C,U3*%
X168350000Y-112450000D02*
X168350000Y-114850000D01*
X168350000Y-114850000D02*
X173450000Y-114850000D01*
X173450000Y-112150000D02*
X168650000Y-112150000D01*
X173450000Y-114850000D02*
X173450000Y-112150000D01*
X168350000Y-112150000D02*
X168070000Y-112150000D01*
X168350000Y-111870000D01*
X168350000Y-112150000D01*
G36*
X168350000Y-112150000D02*
G01*
X168070000Y-112150000D01*
X168350000Y-111870000D01*
X168350000Y-112150000D01*
G37*
%TD*%
M02*
