%TF.GenerationSoftware,KiCad,Pcbnew,9.0.4*%
%TF.CreationDate,2025-11-12T18:25:33-05:00*%
%TF.ProjectId,hermes,6865726d-6573-42e6-9b69-6361645f7063,rev?*%
%TF.SameCoordinates,Original*%
%TF.FileFunction,Copper,L2,Bot*%
%TF.FilePolarity,Positive*%
%FSLAX46Y46*%
G04 Gerber Fmt 4.6, Leading zero omitted, Abs format (unit mm)*
G04 Created by KiCad (PCBNEW 9.0.4) date 2025-11-12 18:25:33*
%MOMM*%
%LPD*%
G01*
G04 APERTURE LIST*
%TA.AperFunction,ComponentPad*%
%ADD10R,0.850000X0.850000*%
%TD*%
%TA.AperFunction,ComponentPad*%
%ADD11C,0.850000*%
%TD*%
%TA.AperFunction,ViaPad*%
%ADD12C,0.600000*%
%TD*%
%TA.AperFunction,Conductor*%
%ADD13C,0.200000*%
%TD*%
G04 APERTURE END LIST*
D10*
%TO.P,J2,1,Pin_1*%
%TO.N,GND*%
X177000000Y-110000000D03*
D11*
%TO.P,J2,2,Pin_2*%
%TO.N,XSHUT*%
X177000000Y-111000000D03*
%TO.P,J2,3,Pin_3*%
%TO.N,SCL*%
X177000000Y-112000000D03*
%TO.P,J2,4,Pin_4*%
%TO.N,SDA*%
X177000000Y-113000000D03*
%TO.P,J2,5,Pin_5*%
%TO.N,TOF_INT*%
X177000000Y-114000000D03*
%TO.P,J2,6,Pin_6*%
%TO.N,+3V3*%
X177000000Y-115000000D03*
%TD*%
D12*
%TO.N,SCL*%
X170750000Y-115250000D03*
%TO.N,SDA*%
X172000000Y-115250000D03*
%TO.N,XSHUT*%
X172000000Y-111500000D03*
%TO.N,GND*%
X167500000Y-113000000D03*
X172000000Y-113500000D03*
X171000000Y-113500000D03*
X170000000Y-113500000D03*
%TD*%
D13*
%TO.N,SCL*%
X174349943Y-112000000D02*
X177000000Y-112000000D01*
X170750000Y-115250000D02*
X171099943Y-115250000D01*
X171099943Y-115250000D02*
X174349943Y-112000000D01*
%TO.N,SDA*%
X174000000Y-115250000D02*
X172000000Y-115250000D01*
X177000000Y-113000000D02*
X176250000Y-113000000D01*
X176250000Y-113000000D02*
X174000000Y-115250000D01*
%TO.N,XSHUT*%
X172000000Y-111500000D02*
X172500000Y-111000000D01*
X172500000Y-111000000D02*
X177000000Y-111000000D01*
%TD*%
%TA.AperFunction,Conductor*%
%TO.N,GND*%
G36*
X177942539Y-105520185D02*
G01*
X177988294Y-105572989D01*
X177999500Y-105624500D01*
X177999500Y-109135760D01*
X177979815Y-109202799D01*
X177927011Y-109248554D01*
X177857853Y-109258498D01*
X177794297Y-109229473D01*
X177787819Y-109223441D01*
X177782187Y-109217809D01*
X177667093Y-109131649D01*
X177667086Y-109131645D01*
X177532379Y-109081403D01*
X177532372Y-109081401D01*
X177472844Y-109075000D01*
X177250000Y-109075000D01*
X177250000Y-109876000D01*
X177237238Y-109919461D01*
X177211940Y-109858386D01*
X177141614Y-109788060D01*
X177049728Y-109750000D01*
X176950272Y-109750000D01*
X176858386Y-109788060D01*
X176788060Y-109858386D01*
X176750000Y-109950272D01*
X176750000Y-110049728D01*
X176771570Y-110101805D01*
X176730047Y-110110065D01*
X176730037Y-110110068D01*
X176561613Y-110179831D01*
X176517034Y-110209617D01*
X176487873Y-110229102D01*
X176421197Y-110249980D01*
X176418984Y-110250000D01*
X176075000Y-110250000D01*
X176075000Y-110275500D01*
X176055315Y-110342539D01*
X176002511Y-110388294D01*
X175951000Y-110399500D01*
X172586670Y-110399500D01*
X172586654Y-110399499D01*
X172579058Y-110399499D01*
X172420943Y-110399499D01*
X172344579Y-110419961D01*
X172268214Y-110440423D01*
X172268209Y-110440426D01*
X172131290Y-110519475D01*
X172131286Y-110519478D01*
X171985337Y-110665427D01*
X171924014Y-110698911D01*
X171921848Y-110699362D01*
X171766508Y-110730261D01*
X171766498Y-110730264D01*
X171620827Y-110790602D01*
X171620814Y-110790609D01*
X171489711Y-110878210D01*
X171489707Y-110878213D01*
X171378213Y-110989707D01*
X171378210Y-110989711D01*
X171290609Y-111120814D01*
X171290602Y-111120827D01*
X171230264Y-111266498D01*
X171230261Y-111266510D01*
X171199500Y-111421153D01*
X171199500Y-111578846D01*
X171230261Y-111733489D01*
X171230264Y-111733501D01*
X171290602Y-111879172D01*
X171290609Y-111879185D01*
X171378210Y-112010288D01*
X171378213Y-112010292D01*
X171489707Y-112121786D01*
X171489711Y-112121789D01*
X171620814Y-112209390D01*
X171620827Y-112209397D01*
X171766498Y-112269735D01*
X171766503Y-112269737D01*
X171921153Y-112300499D01*
X171921156Y-112300500D01*
X171921158Y-112300500D01*
X172078844Y-112300500D01*
X172078845Y-112300499D01*
X172233497Y-112269737D01*
X172379179Y-112209394D01*
X172510289Y-112121789D01*
X172621789Y-112010289D01*
X172709394Y-111879179D01*
X172769737Y-111733497D01*
X172776339Y-111700309D01*
X172808724Y-111638398D01*
X172869439Y-111603824D01*
X172897956Y-111600500D01*
X173600845Y-111600500D01*
X173667884Y-111620185D01*
X173713639Y-111672989D01*
X173723583Y-111742147D01*
X173694558Y-111805703D01*
X173688526Y-111812181D01*
X171061180Y-114439526D01*
X170999857Y-114473011D01*
X170949307Y-114473462D01*
X170828844Y-114449500D01*
X170828842Y-114449500D01*
X170671158Y-114449500D01*
X170671155Y-114449500D01*
X170516510Y-114480261D01*
X170516498Y-114480264D01*
X170370827Y-114540602D01*
X170370814Y-114540609D01*
X170239711Y-114628210D01*
X170239707Y-114628213D01*
X170128213Y-114739707D01*
X170128210Y-114739711D01*
X170040609Y-114870814D01*
X170040602Y-114870827D01*
X169980264Y-115016498D01*
X169980261Y-115016510D01*
X169949500Y-115171153D01*
X169949500Y-115328846D01*
X169980261Y-115483489D01*
X169980264Y-115483501D01*
X170040602Y-115629172D01*
X170040609Y-115629185D01*
X170128210Y-115760288D01*
X170128213Y-115760292D01*
X170239707Y-115871786D01*
X170239711Y-115871789D01*
X170370814Y-115959390D01*
X170370827Y-115959397D01*
X170516498Y-116019735D01*
X170516503Y-116019737D01*
X170671153Y-116050499D01*
X170671156Y-116050500D01*
X170671158Y-116050500D01*
X170828844Y-116050500D01*
X170828845Y-116050499D01*
X170983497Y-116019737D01*
X171129179Y-115959394D01*
X171260289Y-115871789D01*
X171287319Y-115844758D01*
X171348639Y-115811274D01*
X171418331Y-115816258D01*
X171462680Y-115844759D01*
X171489707Y-115871786D01*
X171489711Y-115871789D01*
X171620814Y-115959390D01*
X171620827Y-115959397D01*
X171766498Y-116019735D01*
X171766503Y-116019737D01*
X171921153Y-116050499D01*
X171921156Y-116050500D01*
X171921158Y-116050500D01*
X172078844Y-116050500D01*
X172078845Y-116050499D01*
X172233497Y-116019737D01*
X172379179Y-115959394D01*
X172429905Y-115925500D01*
X172510875Y-115871398D01*
X172577553Y-115850520D01*
X172579766Y-115850500D01*
X173913331Y-115850500D01*
X173913347Y-115850501D01*
X173920943Y-115850501D01*
X174079054Y-115850501D01*
X174079057Y-115850501D01*
X174231785Y-115809577D01*
X174281904Y-115780639D01*
X174368716Y-115730520D01*
X174480520Y-115618716D01*
X174480520Y-115618714D01*
X174490728Y-115608507D01*
X174490729Y-115608504D01*
X175899444Y-114199790D01*
X175960763Y-114166308D01*
X176030455Y-114171292D01*
X176086388Y-114213164D01*
X176102246Y-114241407D01*
X176106504Y-114252050D01*
X176110067Y-114269958D01*
X176179833Y-114438389D01*
X176182909Y-114442993D01*
X176187287Y-114453933D01*
X176189979Y-114482179D01*
X176195761Y-114509960D01*
X176193395Y-114518016D01*
X176193917Y-114523488D01*
X176188975Y-114533069D01*
X176181525Y-114558444D01*
X176179835Y-114561605D01*
X176110067Y-114730041D01*
X176110065Y-114730047D01*
X176074500Y-114908843D01*
X176074500Y-114908846D01*
X176074500Y-115091154D01*
X176074500Y-115091156D01*
X176074499Y-115091156D01*
X176110065Y-115269952D01*
X176110068Y-115269962D01*
X176179831Y-115438387D01*
X176179833Y-115438391D01*
X176281113Y-115589967D01*
X176281119Y-115589975D01*
X176410024Y-115718880D01*
X176410032Y-115718886D01*
X176561608Y-115820166D01*
X176561612Y-115820168D01*
X176685294Y-115871398D01*
X176730042Y-115889933D01*
X176730046Y-115889933D01*
X176730047Y-115889934D01*
X176908843Y-115925500D01*
X176908846Y-115925500D01*
X177091156Y-115925500D01*
X177211445Y-115901572D01*
X177269958Y-115889933D01*
X177438389Y-115820167D01*
X177438391Y-115820166D01*
X177572557Y-115730519D01*
X177589972Y-115718883D01*
X177718883Y-115589972D01*
X177772398Y-115509879D01*
X177826009Y-115465076D01*
X177895334Y-115456368D01*
X177958362Y-115486522D01*
X177995081Y-115545964D01*
X177999500Y-115578771D01*
X177999500Y-119375500D01*
X177979815Y-119442539D01*
X177927011Y-119488294D01*
X177875500Y-119499500D01*
X163124500Y-119499500D01*
X163057461Y-119479815D01*
X163011706Y-119427011D01*
X163000500Y-119375500D01*
X163000500Y-109527155D01*
X176075000Y-109527155D01*
X176075000Y-109750000D01*
X176750000Y-109750000D01*
X176750000Y-109075000D01*
X176527155Y-109075000D01*
X176467627Y-109081401D01*
X176467620Y-109081403D01*
X176332913Y-109131645D01*
X176332906Y-109131649D01*
X176217812Y-109217809D01*
X176217809Y-109217812D01*
X176131649Y-109332906D01*
X176131645Y-109332913D01*
X176081403Y-109467620D01*
X176081401Y-109467627D01*
X176075000Y-109527155D01*
X163000500Y-109527155D01*
X163000500Y-105624500D01*
X163020185Y-105557461D01*
X163072989Y-105511706D01*
X163124500Y-105500500D01*
X177875500Y-105500500D01*
X177942539Y-105520185D01*
G37*
%TD.AperFunction*%
%TD*%
M02*
